<?xml version="1.0" encoding="UTF-8"?>
<svg id="Layer_2" data-name="Layer 2" xmlns="http://www.w3.org/2000/svg" viewBox="0 0 510.92 511.07">
  <defs>
    <style>
      .cls-1 {
        fill: #fff;
      }

      .cls-2 {
        fill: #263681;
      }
    </style>
  </defs>
  <g id="Layer_1-2" data-name="Layer 1">
    <g>
      <path class="cls-2" d="M390.33,511.07H0c0-127.42,0-254.85,0-382.27,1.01-4.64,2.11-9.26,3.03-13.92C16.09,48.52,72.23,1.63,139.17.66c92.98-1.35,185.99-.21,278.99-.14,28.78.02,57.56,0,86.35.02,2.06,0,4.13.3,6.41.47v5.52c0,124.92.01,249.84-.04,374.76,0,4.64-.34,9.32-1.07,13.9-8.64,54.39-52.81,101.16-106.5,112.9-4.33.95-8.65,1.98-12.97,2.97ZM29.78,482.18c1.93.17,3.22.38,4.51.38,30.27-.09,60.55-.2,90.82-.32,1.83,0,3.67-.08,5.47-.33,57.23-7.67,98.52-53.35,98.75-111.1.46-111.76.12-223.53.2-335.3,0-3.88-1.13-5.11-5.09-5.09-27.95.16-55.89.07-83.84.1-3.82,0-7.67.03-11.47.39-55.03,5.29-99.34,54.09-99.35,109.46-.03,111.93,0,223.86,0,335.8,0,1.81,0,3.62,0,6.01ZM449.28,235.87c.36.18.73.37,1.09.55,3.64-3.29,7.28-6.57,11.07-9.99,3.89,3.46,7.54,6.69,11.78,10.46v-15.87c5.01-.87,9.65-1.68,15.64-2.72-5.16-3.6-9.19-6.4-13.4-9.33,2.56-4.64,4.98-9.01,7.92-14.33-6.07,1.7-10.89,3.06-15.68,4.4-2.11-5.07-3.92-9.42-6.24-15.02-2.35,5.77-4.2,10.29-6.16,15.09-5.08-1.43-9.85-2.77-15.75-4.43,3.09,5.51,5.49,9.78,7.93,14.15-4.34,3.15-8.28,6-13.15,9.54,6.09,1.04,10.91,1.87,15.92,2.72-.34,5.24-.65,10-.97,14.77ZM392.05,385.51c-.28-.29-.55-.59-.83-.88-3.62,1.09-7.27,2.08-10.85,3.3-2.53.86-3.97.32-4.88-2.34-1.25-3.65-2.85-7.18-4.74-11.85-2.37,5.69-4.26,10.21-6.26,15.02-5.01-1.41-9.77-2.75-15.62-4.39,3.03,5.5,5.39,9.79,7.82,14.18-4.35,3.13-8.3,5.98-13.19,9.49,6.06,1.04,10.87,1.86,15.89,2.72-.24,5.32-.45,10.12-.72,16.2,4.65-4.21,8.29-7.51,12.01-10.88,3.99,3.53,7.71,6.83,12.21,10.82-.26-5.12-.3-8.93-.69-12.7-.28-2.77.66-3.83,3.44-4.1,3.72-.37,7.39-1.22,12.25-2.07-4.93-3.6-8.96-6.55-13.15-9.6,2.61-4.61,4.96-8.76,7.31-12.9ZM348.78,111.01c3.12,5.7,5.47,9.99,7.89,14.39-4.34,3.11-8.26,5.92-13.2,9.47,5.11.84,8.83,1.6,12.59,2.01,2.5.28,3.48,1.27,3.25,3.83-.35,3.88-.44,7.78-.72,13.02,4.66-4.13,8.4-7.45,12.15-10.77,3.98,3.53,7.62,6.75,12.13,10.75-.23-4.73-.23-8.18-.62-11.59-.4-3.42.33-5.24,4.28-5.41,3.45-.14,6.86-1.18,11.32-2.02-5.04-3.59-9.04-6.43-13.12-9.33,2.58-4.66,4.93-8.93,7.92-14.34-5.98,1.77-10.67,3.17-15.68,4.65-2.01-4.87-3.91-9.47-6.28-15.21-2.37,5.82-4.22,10.37-6.19,15.23-5.04-1.5-9.73-2.9-15.73-4.69ZM244.65,221.14c3.07,5.57,5.44,9.86,7.96,14.45-4.2,2.94-8.2,5.73-13.33,9.31,6.15,1.11,10.92,1.96,16,2.88-.28,5.18-.55,10-.89,16.29,4.75-4.3,8.36-7.57,12.18-11.03,3.97,3.56,7.59,6.82,12.24,11-.29-4.88-.17-8.35-.79-11.68-.76-4.09.97-5.3,4.65-5.59,3.33-.26,6.63-1.01,11.37-1.78-5.33-3.71-9.36-6.52-13.48-9.38,2.59-4.72,4.97-9.06,7.87-14.34-6.02,1.72-10.73,3.06-15.59,4.45-2.08-4.93-3.95-9.39-6.26-14.87-2.4,5.69-4.31,10.19-6.32,14.97-4.93-1.47-9.48-2.83-15.62-4.66ZM421.35,296.05c.16-.43.33-.87.49-1.3-.84-3.43-3.08-7.33-2.15-10.18,1.01-3.08,5-5.18,9.03-8.97-10.22,2.3-15.2-1.72-16.28-12.06-2.3,5.22-2.93,9.6-5.43,11.46-2.46,1.83-6.82,1.1-11.05,1.58,3.24,2.84,7.3,4.76,8.19,7.66.92,2.99-1.24,6.93-2.06,10.45.22.43.43.87.65,1.3,6.22-8.03,12.42-7.19,18.6.06Z"/>
      <path class="cls-1" d="M29.78,482.18c0-2.39,0-4.2,0-6.01,0-111.93-.02-223.86,0-335.8.01-55.37,44.32-104.17,99.35-109.46,3.8-.37,7.64-.39,11.47-.39,27.95-.03,55.89.06,83.84-.1,3.96-.02,5.09,1.21,5.09,5.09-.08,111.77.26,223.53-.2,335.3-.24,57.74-41.52,103.43-98.75,111.1-1.81.24-3.65.32-5.47.33-30.27.13-60.55.23-90.82.32-1.29,0-2.58-.21-4.51-.38ZM206.98,251.46c-.29-1.25-.35-1.91-.59-2.51-19.87-49.69-39.78-99.36-59.57-149.07-1.08-2.72-2.67-3.32-5.27-3.29-8.65.1-17.3.21-25.95-.05-3.74-.11-5.49,1.13-6.89,4.67-17.14,43.26-34.47,86.44-51.74,129.64-2.69,6.72-5.34,13.46-8.19,20.61,15.36,0,29.99.07,44.62-.13,1.3-.02,3.21-1.52,3.75-2.8,2.14-5.04,3.61-10.37,5.85-15.36.68-1.51,2.99-3.22,4.59-3.25,13.64-.26,27.28-.24,40.92,0,1.46.02,3.61,1.62,4.21,3.02,2.16,5.03,3.6,10.36,5.75,15.39.58,1.37,2.66,2.97,4.07,2.99,14.63.22,29.26.13,44.44.13ZM175.16,332.34c-1.07-8.14-1.55-15.63-3.14-22.87-2.41-10.98-8.73-19.59-19.17-24.01-5.69-2.41-12.11-3.81-18.3-4.21-27.45-1.78-46.65,7.91-51.71,38.78-1.53,9.31-2.24,18.82-2.49,28.27-.46,17.12-.35,34.29,3.81,51.05,4.41,17.73,15.32,28.79,33.94,31.07,5.09.62,10.28.78,15.41.66,12.64-.28,24.15-3.73,31.99-14.39,9.35-12.72,9.9-27.61,10.18-42.67h-28.91c0,1.85.22,3.37-.04,4.8-1.41,7.8-2.34,15.75-4.62,23.3-1.88,6.23-7.49,8.55-13.87,8.51-6.37-.04-11.57-2.42-13.77-8.68-1.75-4.97-3.57-10.21-3.76-15.38-.63-17.75-1-35.54-.55-53.3.19-7.33,2.19-14.76,4.32-21.85,1.84-6.12,6.79-9.16,13.4-9.15,8.42.02,13.73,3.86,15.67,12.42,1.31,5.74,1.71,11.69,2.54,17.66h29.06Z"/>
      <path class="cls-1" d="M449.28,235.87c.31-4.77.62-9.54.97-14.77-5.02-.86-9.83-1.68-15.92-2.72,4.87-3.53,8.81-6.39,13.15-9.54-2.45-4.36-4.85-8.64-7.93-14.15,5.91,1.66,10.67,3,15.75,4.43,1.96-4.8,3.8-9.32,6.16-15.09,2.33,5.6,4.14,9.95,6.24,15.02,4.79-1.34,9.62-2.7,15.68-4.4-2.94,5.32-5.35,9.69-7.92,14.33,4.21,2.93,8.24,5.74,13.4,9.33-6,1.04-10.63,1.85-15.64,2.72v15.87c-4.24-3.76-7.89-7-11.78-10.46-3.79,3.42-7.43,6.7-11.07,9.99-.36-.18-.73-.37-1.09-.55Z"/>
      <path class="cls-1" d="M392.05,385.51c-2.35,4.14-4.69,8.29-7.31,12.9,4.18,3.05,8.22,6,13.15,9.6-4.85.85-8.53,1.7-12.25,2.07-2.78.28-3.72,1.33-3.44,4.1.39,3.78.43,7.59.69,12.7-4.5-3.99-8.22-7.28-12.21-10.82-3.72,3.37-7.36,6.67-12.01,10.88.27-6.07.48-10.87.72-16.2-5.02-.86-9.83-1.68-15.89-2.72,4.88-3.52,8.84-6.36,13.19-9.49-2.42-4.39-4.78-8.68-7.82-14.18,5.84,1.64,10.6,2.98,15.62,4.39,2-4.81,3.89-9.33,6.26-15.02,1.89,4.67,3.49,8.2,4.74,11.85.91,2.67,2.36,3.2,4.88,2.34,3.58-1.21,7.23-2.21,10.85-3.3.28.29.55.59.83.88Z"/>
      <path class="cls-1" d="M348.78,111.01c5.99,1.79,10.68,3.19,15.73,4.69,1.98-4.86,3.83-9.41,6.19-15.23,2.37,5.74,4.27,10.34,6.28,15.21,5.01-1.49,9.7-2.88,15.68-4.65-2.99,5.41-5.35,9.68-7.92,14.34,4.08,2.9,8.08,5.74,13.12,9.33-4.45.83-7.87,1.87-11.32,2.02-3.96.16-4.68,1.99-4.28,5.41.4,3.41.39,6.86.62,11.59-4.51-4-8.15-7.22-12.13-10.75-3.75,3.32-7.49,6.64-12.15,10.77.27-5.24.37-9.14.72-13.02.23-2.56-.75-3.55-3.25-3.83-3.76-.42-7.48-1.18-12.59-2.01,4.94-3.55,8.86-6.36,13.2-9.47-2.42-4.41-4.77-8.7-7.89-14.39Z"/>
      <path class="cls-1" d="M244.65,221.14c6.13,1.83,10.68,3.19,15.62,4.66,2.02-4.78,3.92-9.28,6.32-14.97,2.31,5.48,4.18,9.94,6.26,14.87,4.87-1.39,9.57-2.73,15.59-4.45-2.9,5.29-5.28,9.62-7.87,14.34,4.11,2.86,8.14,5.67,13.48,9.38-4.74.77-8.04,1.52-11.37,1.78-3.68.29-5.41,1.51-4.65,5.59.62,3.33.49,6.8.79,11.68-4.66-4.18-8.28-7.44-12.24-11-3.82,3.46-7.43,6.73-12.18,11.03.34-6.28.61-11.11.89-16.29-5.08-.91-9.84-1.77-16-2.88,5.13-3.58,9.12-6.37,13.33-9.31-2.53-4.58-4.89-8.88-7.96-14.45Z"/>
      <path class="cls-1" d="M421.35,296.05c-6.19-7.25-12.39-8.09-18.6-.06-.22-.43-.43-.87-.65-1.3.82-3.52,2.98-7.46,2.06-10.45-.89-2.9-4.96-4.81-8.19-7.66,4.24-.47,8.6.25,11.05-1.58,2.5-1.86,3.12-6.24,5.43-11.46,1.08,10.34,6.06,14.36,16.28,12.06-4.03,3.79-8.02,5.89-9.03,8.97-.94,2.85,1.3,6.74,2.15,10.18-.16.43-.33.87-.49,1.3Z"/>
      <path class="cls-2" d="M206.98,251.46c-15.19,0-29.82.08-44.44-.13-1.41-.02-3.49-1.62-4.07-2.99-2.14-5.03-3.59-10.37-5.75-15.39-.6-1.4-2.74-3-4.21-3.02-13.64-.23-27.28-.25-40.92,0-1.59.03-3.91,1.74-4.59,3.25-2.23,4.99-3.71,10.32-5.85,15.36-.54,1.28-2.45,2.78-3.75,2.8-14.63.2-29.26.13-44.62.13,2.84-7.16,5.5-13.89,8.19-20.61,17.27-43.2,34.6-86.38,51.74-129.64,1.4-3.54,3.15-4.78,6.89-4.67,8.64.26,17.3.15,25.95.05,2.6-.03,4.19.57,5.27,3.29,19.79,49.72,39.7,99.39,59.57,149.07.24.6.3,1.26.59,2.51ZM128.69,159.16c-.42-.05-.85-.1-1.27-.15-3.68,11.32-7.35,22.64-11.11,34.21h23.31c-3.77-11.75-7.35-22.91-10.93-34.07Z"/>
      <path class="cls-2" d="M175.16,332.34h-29.06c-.82-5.97-1.23-11.91-2.54-17.66-1.94-8.55-7.25-12.4-15.67-12.42-6.61-.01-11.56,3.03-13.4,9.15-2.14,7.09-4.14,14.52-4.32,21.85-.45,17.75-.08,35.54.55,53.3.18,5.18,2.01,10.41,3.76,15.38,2.21,6.26,7.41,8.64,13.77,8.68,6.37.04,11.98-2.28,13.87-8.51,2.28-7.54,3.21-15.5,4.62-23.3.26-1.43.04-2.95.04-4.8h28.91c-.28,15.06-.83,29.94-10.18,42.67-7.84,10.66-19.34,14.11-31.99,14.39-5.13.11-10.32-.04-15.41-.66-18.62-2.28-29.53-13.35-33.94-31.07-4.17-16.76-4.27-33.93-3.81-51.05.25-9.44.96-18.95,2.49-28.27,5.06-30.87,24.27-40.56,51.71-38.78,6.19.4,12.61,1.8,18.3,4.21,10.45,4.42,16.77,13.04,19.17,24.01,1.59,7.24,2.06,14.73,3.14,22.87Z"/>
      <path class="cls-1" d="M128.69,159.16c3.58,11.16,7.16,22.31,10.93,34.07h-23.31c3.76-11.57,7.43-22.89,11.11-34.21.42.05.85.1,1.27.15Z"/>
    </g>
  </g>
</svg>